<mxfile host="Electron" modified="2025-01-07T21:28:13.632Z" agent="Mozilla/5.0 (Macintosh; Intel Mac OS X 10_15_7) AppleWebKit/537.36 (KHTML, like Gecko) draw.io/23.0.2 Chrome/120.0.6099.109 Electron/28.1.0 Safari/537.36" etag="9eDxcDRqQsr-HbAcHFS9" version="23.0.2" type="device">
  <diagram name="Страница — 1" id="i9a7rYfuKe7Sr2Hh15UE">
    <mxGraphModel dx="5213" dy="2795" grid="0" gridSize="10" guides="1" tooltips="1" connect="1" arrows="1" fold="1" page="0" pageScale="1" pageWidth="827" pageHeight="1169" background="#ffffff" math="0" shadow="0">
      <root>
        <mxCell id="0" />
        <mxCell id="1" parent="0" />
        <mxCell id="XE95BQeEQHAdmC5Dozax-6" value="&lt;p style=&quot;margin: 4px 0px 0px; text-align: center;&quot;&gt;&lt;b style=&quot;&quot;&gt;&lt;font style=&quot;font-size: 12px;&quot;&gt;User&lt;/font&gt;&lt;/b&gt;&lt;/p&gt;&lt;hr style=&quot;&quot;&gt;&lt;div style=&quot;border-color: var(--border-color);&quot;&gt;&lt;font style=&quot;border-color: var(--border-color); font-size: 12px;&quot; face=&quot;Helvetica&quot;&gt;&amp;nbsp;- id: Integer&lt;/font&gt;&lt;/div&gt;&lt;div style=&quot;border-color: var(--border-color);&quot;&gt;&lt;font style=&quot;font-size: 12px;&quot;&gt;&amp;nbsp;-&lt;/font&gt;&lt;span style=&quot;background-color: initial;&quot;&gt;&amp;nbsp;git: String&amp;nbsp;&lt;/span&gt;&lt;/div&gt;&lt;div style=&quot;border-color: var(--border-color);&quot;&gt;&lt;font style=&quot;font-size: 12px;&quot;&gt;&amp;nbsp;- phone: String&lt;/font&gt;&lt;/div&gt;&lt;div style=&quot;border-color: var(--border-color);&quot;&gt;&lt;font style=&quot;font-size: 12px;&quot;&gt;&amp;nbsp;- telegram: String&lt;/font&gt;&lt;/div&gt;&lt;div style=&quot;border-color: var(--border-color);&quot;&gt;&lt;font style=&quot;font-size: 12px;&quot;&gt;&amp;nbsp;- email: String&lt;/font&gt;&lt;/div&gt;&lt;hr style=&quot;&quot;&gt;&lt;p style=&quot;margin: 0px 0px 0px 4px;&quot;&gt;&lt;font style=&quot;font-size: 12px;&quot;&gt;+ set_contacts(Hash)&amp;nbsp;&lt;/font&gt;&lt;/p&gt;&lt;font style=&quot;font-size: 12px;&quot;&gt;&amp;nbsp;+ git=(git: String) (set)&lt;br&gt;&amp;nbsp;+ phone=(phone: String) (set)&lt;br&gt;&amp;nbsp;+ telegram=(telegram: String) (set)&lt;br&gt;&amp;nbsp;+&amp;nbsp;email=(email: String) (set)&lt;br style=&quot;&quot;&gt;&amp;nbsp;+ full_name=(String) (set)&lt;br style=&quot;&quot;&gt;&amp;nbsp;+&amp;nbsp;validate: Boolean&lt;br style=&quot;&quot;&gt;&amp;nbsp;+&amp;nbsp;check_git?: Boolean&lt;br style=&quot;&quot;&gt;&amp;nbsp;+&amp;nbsp;get_full_name: String (get)&lt;br style=&quot;&quot;&gt;&amp;nbsp;+ contact: String&lt;br style=&quot;&quot;&gt;&lt;span style=&quot;font-family: &amp;quot;Helvetica Neue&amp;quot;; background-color: initial;&quot; class=&quot;Apple-converted-space&quot;&gt;&amp;nbsp;+ get_info: String&lt;span style=&quot;background-color: initial;&quot; class=&quot;Apple-converted-space&quot;&gt;&amp;nbsp;&lt;br&gt;&lt;/span&gt;&lt;span style=&quot;background-color: initial;&quot;&gt;&amp;nbsp;&amp;nbsp;&lt;b style=&quot;&quot;&gt;protected:&amp;nbsp;&lt;/b&gt;&lt;br&gt;&lt;/span&gt;&amp;nbsp;-&amp;nbsp;&lt;/span&gt;&lt;u&gt;valid_phone?&lt;/u&gt;(String): Boolean&lt;br&gt;&amp;nbsp;-&amp;nbsp;&lt;u&gt;valid_telegram?&lt;/u&gt;(String): Boolean&lt;span style=&quot;font-family: &amp;quot;Helvetica Neue&amp;quot;; background-color: initial;&quot; class=&quot;Apple-converted-space&quot;&gt;&amp;nbsp;&lt;br&gt;&amp;nbsp;-&amp;nbsp;&lt;u&gt;v&lt;/u&gt;&lt;/span&gt;&lt;u&gt;alid_email?&lt;/u&gt;(String): Boolean&lt;br&gt;&amp;nbsp;-&amp;nbsp;&lt;u&gt;valid_git?&lt;/u&gt;(String): Boolean&lt;br&gt;&amp;nbsp;-&amp;nbsp;&lt;u&gt;parse&lt;/u&gt;(String): Hash&amp;nbsp;&lt;span style=&quot;font-family: &amp;quot;Helvetica Neue&amp;quot;; background-color: initial;&quot;&gt;&lt;/span&gt;&lt;br&gt;&lt;br&gt;&lt;span style=&quot;font-family: &amp;quot;Helvetica Neue&amp;quot;; background-color: initial;&quot; class=&quot;Apple-converted-space&quot;&gt;&amp;nbsp;&lt;/span&gt;&lt;/font&gt;" style="verticalAlign=top;align=left;overflow=fill;fontSize=12;fontFamily=Helvetica;html=1;whiteSpace=wrap;spacingLeft=1;spacing=0;spacingTop=0;" parent="1" vertex="1">
          <mxGeometry x="564" y="146" width="250" height="372" as="geometry" />
        </mxCell>
        <mxCell id="r5wtg_AWXMAh0Cm2pznO-2" style="edgeStyle=orthogonalEdgeStyle;rounded=0;orthogonalLoop=1;jettySize=auto;html=1;entryX=0;entryY=0.5;entryDx=0;entryDy=0;endArrow=none;endFill=0;" parent="1" source="XE95BQeEQHAdmC5Dozax-8" target="r5wtg_AWXMAh0Cm2pznO-1" edge="1">
          <mxGeometry relative="1" as="geometry" />
        </mxCell>
        <mxCell id="XE95BQeEQHAdmC5Dozax-8" value="&lt;p style=&quot;margin: 4px 0px 0px; text-align: center; font-size: 12px;&quot;&gt;&lt;b style=&quot;font-size: 12px;&quot;&gt;&lt;font style=&quot;font-size: 12px;&quot;&gt;Student&lt;/font&gt;&lt;/b&gt;&lt;/p&gt;&lt;hr style=&quot;font-size: 12px;&quot;&gt;&lt;div style=&quot;border-color: var(--border-color); font-size: 12px;&quot;&gt;&lt;font style=&quot;border-color: var(--border-color); font-size: 12px;&quot;&gt;&amp;nbsp;- surname: String&amp;nbsp;&lt;br style=&quot;font-size: 12px;&quot;&gt;&lt;/font&gt;&lt;/div&gt;&lt;div style=&quot;border-color: var(--border-color); font-size: 12px;&quot;&gt;&lt;font style=&quot;border-color: var(--border-color); font-size: 12px;&quot;&gt;&amp;nbsp;- name: String&amp;nbsp;&lt;/font&gt;&lt;/div&gt;&lt;div style=&quot;border-color: var(--border-color); font-size: 12px;&quot;&gt;&lt;font style=&quot;border-color: var(--border-color); font-size: 12px;&quot;&gt;&amp;nbsp;- patronymic: String&lt;/font&gt;&lt;/div&gt;&lt;div style=&quot;border-color: var(--border-color); font-size: 12px;&quot;&gt;&lt;font style=&quot;border-color: var(--border-color); font-size: 12px;&quot;&gt;&amp;nbsp;- birthdate: Date&amp;nbsp;&lt;/font&gt;&lt;/div&gt;&lt;hr style=&quot;font-size: 12px;&quot;&gt;&lt;p style=&quot;margin: 0px 0px 0px 4px; font-size: 12px;&quot;&gt;&lt;font style=&quot;font-size: 12px;&quot;&gt;+&amp;nbsp;&lt;/font&gt;&amp;lt;=&amp;gt;(Student): Integer&lt;/p&gt;&lt;p style=&quot;margin: 0px 0px 0px 4px; font-size: 12px;&quot;&gt;+ ==(Student): Boolean&lt;/p&gt;&lt;p style=&quot;margin: 0px 0px 0px 4px; font-size: 12px;&quot;&gt;&lt;font style=&quot;font-size: 12px;&quot;&gt;+ t&lt;/font&gt;o_s: String&lt;span style=&quot;font-size: 12px; background-color: initial;&quot; class=&quot;Apple-converted-space&quot;&gt;&amp;nbsp;&lt;/span&gt;&lt;/p&gt;&lt;font style=&quot;font-size: 12px;&quot;&gt;&amp;nbsp;+&amp;nbsp;check_contact?(): Boolean&lt;br&gt;&amp;nbsp;+ &lt;u&gt;self.new_from_hash&lt;/u&gt;(Hash): Student&lt;br&gt;&amp;nbsp;&amp;nbsp;&lt;b&gt;private:&lt;/b&gt;&lt;br style=&quot;font-size: 12px;&quot;&gt;&amp;nbsp;- surname=(String) (set)&lt;br style=&quot;font-size: 12px;&quot;&gt;&amp;nbsp;- name=(String) (set)&lt;br style=&quot;font-size: 12px;&quot;&gt;&amp;nbsp;- patronymic=(String)&amp;nbsp;&lt;span style=&quot;background-color: initial; font-size: 12px;&quot; class=&quot;Apple-converted-space&quot;&gt;(set)&lt;br&gt;&amp;nbsp;- birthdate=(String) (set)&lt;span style=&quot;background-color: initial; font-size: 12px;&quot;&gt;&lt;br style=&quot;font-size: 12px;&quot;&gt;&lt;/span&gt;&amp;nbsp;-&amp;nbsp;&lt;u&gt;self.valid_full_name?&lt;/u&gt;(String): Boolean&lt;span style=&quot;font-size: 12px; background-color: initial;&quot; class=&quot;Apple-converted-space&quot;&gt;&amp;nbsp;&lt;/span&gt;&lt;/span&gt;&lt;br style=&quot;font-size: 12px;&quot;&gt;&lt;br style=&quot;font-size: 12px;&quot;&gt;&lt;span style=&quot;background-color: initial; font-size: 12px;&quot; class=&quot;Apple-converted-space&quot;&gt;&amp;nbsp;&lt;/span&gt;&lt;/font&gt;" style="verticalAlign=top;align=left;overflow=fill;fontSize=12;fontFamily=Helvetica;html=1;whiteSpace=wrap;spacingLeft=1;spacing=0;spacingTop=0;" parent="1" vertex="1">
          <mxGeometry x="119" y="98" width="276" height="265" as="geometry" />
        </mxCell>
        <mxCell id="r5wtg_AWXMAh0Cm2pznO-3" style="edgeStyle=orthogonalEdgeStyle;rounded=0;orthogonalLoop=1;jettySize=auto;html=1;entryX=0;entryY=0.5;entryDx=0;entryDy=0;endArrow=none;endFill=0;" parent="1" source="XE95BQeEQHAdmC5Dozax-9" target="r5wtg_AWXMAh0Cm2pznO-1" edge="1">
          <mxGeometry relative="1" as="geometry" />
        </mxCell>
        <mxCell id="XE95BQeEQHAdmC5Dozax-9" value="&lt;p style=&quot;margin: 4px 0px 0px; text-align: center;&quot;&gt;&lt;b style=&quot;&quot;&gt;&lt;font face=&quot;Helvetica&quot; style=&quot;font-size: 12px;&quot;&gt;Student_short&lt;/font&gt;&lt;/b&gt;&lt;/p&gt;&lt;hr style=&quot;&quot;&gt;&lt;div style=&quot;border-color: var(--border-color);&quot;&gt;&lt;font style=&quot;font-size: 12px;&quot;&gt;&lt;span style=&quot;background-color: initial;&quot;&gt;&lt;font face=&quot;Lt6sbaxPKtE7krCIfs0r&quot;&gt;&amp;nbsp;-&lt;/font&gt;&amp;nbsp;contact&lt;/span&gt;&lt;span style=&quot;background-color: initial;&quot;&gt;: String&lt;/span&gt;&lt;/font&gt;&lt;/div&gt;&lt;div style=&quot;border-color: var(--border-color);&quot;&gt;&lt;font style=&quot;font-size: 12px;&quot;&gt;&lt;span style=&quot;background-color: initial;&quot;&gt;&amp;nbsp;- full_name: String&lt;/span&gt;&lt;/font&gt;&lt;/div&gt;&lt;hr style=&quot;&quot;&gt;&lt;p style=&quot;margin: 0px 0px 0px 4px;&quot;&gt;&lt;font style=&quot;background-color: initial;&quot;&gt;+&amp;nbsp;&lt;/font&gt;&lt;span style=&quot;background-color: initial;&quot;&gt;to_s: String&lt;/span&gt;&lt;span style=&quot;background-color: initial;&quot; class=&quot;Apple-converted-space&quot;&gt;&amp;nbsp;&lt;/span&gt;&lt;br&gt;&lt;/p&gt;&lt;font style=&quot;font-size: 12px;&quot;&gt;&lt;span style=&quot;background-color: initial;&quot; class=&quot;Apple-converted-space&quot;&gt;&amp;nbsp;+&amp;nbsp;&lt;/span&gt;&lt;u&gt;self.init_with_student&lt;/u&gt;(Student): Student_short&lt;br&gt;&amp;nbsp;+&amp;nbsp;&lt;u&gt;init_with_string&lt;/u&gt;(Integer, String): Student_short&lt;br&gt;&amp;nbsp;&amp;nbsp;&lt;b&gt;private:&lt;/b&gt;&lt;br&gt;&amp;nbsp;- contact =(contact: String) (set)&lt;br&gt;&lt;span style=&quot;background-color: initial;&quot; class=&quot;Apple-converted-space&quot;&gt;&amp;nbsp;-&amp;nbsp;&lt;u&gt;valid_full_name?&lt;/u&gt;(String): Boolean&lt;/span&gt;&lt;br&gt;&lt;br&gt;&lt;span style=&quot;font-family: Lt6sbaxPKtE7krCIfs0r; background-color: initial;&quot; class=&quot;Apple-converted-space&quot;&gt;&amp;nbsp;&lt;/span&gt;&lt;/font&gt;" style="verticalAlign=top;align=left;overflow=fill;fontSize=12;fontFamily=Helvetica;html=1;whiteSpace=wrap;spacingLeft=1;spacing=0;spacingTop=0;" parent="1" vertex="1">
          <mxGeometry x="120" y="395" width="275" height="165" as="geometry" />
        </mxCell>
        <mxCell id="PT7E_KIHdmfiMfbQSfNv-4" value="&lt;p style=&quot;margin: 4px 0px 0px; text-align: center;&quot;&gt;&lt;b&gt;Data_list_short_student&lt;/b&gt;&lt;/p&gt;&lt;hr style=&quot;&quot;&gt;&lt;div style=&quot;border-color: var(--border-color);&quot;&gt;&lt;br&gt;&lt;/div&gt;&lt;hr style=&quot;&quot;&gt;&lt;p style=&quot;margin: 0px 0px 0px 4px;&quot;&gt;&amp;nbsp;&lt;b&gt;private:&lt;/b&gt;&lt;/p&gt;&lt;p style=&quot;margin: 0px 0px 0px 4px;&quot;&gt;- column_names: String[]&lt;/p&gt;&lt;p style=&quot;margin: 0px 0px 0px 4px;&quot;&gt;-&amp;nbsp;get_attributes: String[]&lt;/p&gt;" style="verticalAlign=top;align=left;overflow=fill;fontSize=12;fontFamily=Helvetica;html=1;whiteSpace=wrap;spacingLeft=1;spacing=0;spacingTop=0;" parent="1" vertex="1">
          <mxGeometry x="120" y="643.5" width="275" height="109" as="geometry" />
        </mxCell>
        <mxCell id="Pea8CBOK4NY8jZDrgwvB-4" style="edgeStyle=orthogonalEdgeStyle;rounded=0;orthogonalLoop=1;jettySize=auto;html=1;entryX=0.5;entryY=1;entryDx=0;entryDy=0;dashed=1;endArrow=open;endFill=0;dashPattern=12 12;" parent="1" source="PT7E_KIHdmfiMfbQSfNv-4" target="XE95BQeEQHAdmC5Dozax-9" edge="1">
          <mxGeometry relative="1" as="geometry" />
        </mxCell>
        <mxCell id="Pea8CBOK4NY8jZDrgwvB-5" value="&quot;use&quot;" style="text;html=1;align=center;verticalAlign=middle;resizable=0;points=[];autosize=1;strokeColor=none;fillColor=none;" parent="1" vertex="1">
          <mxGeometry x="262" y="589" width="46" height="26" as="geometry" />
        </mxCell>
        <mxCell id="Pea8CBOK4NY8jZDrgwvB-9" style="edgeStyle=orthogonalEdgeStyle;rounded=0;orthogonalLoop=1;jettySize=auto;html=1;entryX=1;entryY=0.5;entryDx=0;entryDy=0;endArrow=none;endFill=0;startArrow=block;startFill=0;" parent="1" source="Pea8CBOK4NY8jZDrgwvB-6" target="PT7E_KIHdmfiMfbQSfNv-4" edge="1">
          <mxGeometry relative="1" as="geometry" />
        </mxCell>
        <mxCell id="Pea8CBOK4NY8jZDrgwvB-13" style="edgeStyle=orthogonalEdgeStyle;rounded=0;orthogonalLoop=1;jettySize=auto;html=1;exitX=0.5;exitY=1;exitDx=0;exitDy=0;entryX=1;entryY=0.5;entryDx=0;entryDy=0;endArrow=open;endFill=0;startArrow=none;startFill=0;dashed=1;dashPattern=12 12;" parent="1" source="Pea8CBOK4NY8jZDrgwvB-6" target="Pea8CBOK4NY8jZDrgwvB-12" edge="1">
          <mxGeometry relative="1" as="geometry" />
        </mxCell>
        <mxCell id="Pea8CBOK4NY8jZDrgwvB-6" value="&lt;p style=&quot;margin: 4px 0px 0px; text-align: center;&quot;&gt;&lt;b&gt;Data_list&lt;/b&gt;&lt;/p&gt;&lt;hr style=&quot;&quot;&gt;&lt;div style=&quot;border-color: var(--border-color);&quot;&gt;&amp;nbsp;- list: Object[]&lt;/div&gt;&lt;div style=&quot;border-color: var(--border-color);&quot;&gt;&amp;nbsp;- selected: Object[]&lt;/div&gt;&lt;hr style=&quot;&quot;&gt;&lt;p style=&quot;margin: 0px 0px 0px 4px;&quot;&gt;&lt;span style=&quot;background-color: initial;&quot;&gt;+ select(Integer)&lt;/span&gt;&lt;/p&gt;&lt;p style=&quot;margin: 0px 0px 0px 4px;&quot;&gt;+ get_selected: Integer[]&lt;/p&gt;&lt;p style=&quot;margin: 0px 0px 0px 4px;&quot;&gt;+ get_names: String[]&lt;/p&gt;&lt;p style=&quot;margin: 0px 0px 0px 4px;&quot;&gt;+ get_data: Data_table&lt;/p&gt;&lt;p style=&quot;margin: 0px 0px 0px 4px;&quot;&gt;+ set_list(Object[])&lt;/p&gt;&lt;p style=&quot;margin: 0px 0px 0px 4px;&quot;&gt;+ notify&lt;/p&gt;&lt;p style=&quot;margin: 0px 0px 0px 4px;&quot;&gt;+ add_observer(Object[])&lt;/p&gt;&lt;p style=&quot;margin: 0px 0px 0px 4px;&quot;&gt;&lt;b&gt;&amp;nbsp;private&lt;/b&gt;:&lt;/p&gt;&lt;p style=&quot;margin: 0px 0px 0px 4px;&quot;&gt;-&amp;nbsp;get_attributes (abstract)&lt;/p&gt;&lt;p style=&quot;margin: 0px 0px 0px 4px;&quot;&gt;- column_names (abstract)&lt;/p&gt;&lt;p style=&quot;margin: 0px 0px 0px 4px;&quot;&gt;- list=(Object[])&lt;/p&gt;" style="verticalAlign=top;align=left;overflow=fill;fontSize=12;fontFamily=Helvetica;html=1;whiteSpace=wrap;spacingLeft=1;spacing=0;spacingTop=0;" parent="1" vertex="1">
          <mxGeometry x="539" y="579.5" width="275" height="237" as="geometry" />
        </mxCell>
        <mxCell id="Pea8CBOK4NY8jZDrgwvB-12" value="&lt;p style=&quot;margin: 4px 0px 0px; text-align: center;&quot;&gt;&lt;b&gt;Data_table&lt;/b&gt;&lt;/p&gt;&lt;hr style=&quot;&quot;&gt;&lt;div style=&quot;border-color: var(--border-color);&quot;&gt;&amp;nbsp;- table: Object[][]&lt;/div&gt;&lt;hr style=&quot;&quot;&gt;&lt;p style=&quot;margin: 0px 0px 0px 4px;&quot;&gt;+&amp;nbsp;get_by_index(Integer, Integer): Object&lt;/p&gt;&lt;p style=&quot;margin: 0px 0px 0px 4px;&quot;&gt;+ row_count: Integer&lt;/p&gt;&lt;p style=&quot;margin: 0px 0px 0px 4px;&quot;&gt;+ column_count: Integer&lt;/p&gt;&lt;p style=&quot;margin: 0px 0px 0px 4px;&quot;&gt;+ to_s: String&lt;/p&gt;&lt;p style=&quot;margin: 0px 0px 0px 4px;&quot;&gt;&amp;nbsp;&lt;b&gt;private:&lt;/b&gt;&lt;/p&gt;&lt;p style=&quot;margin: 0px 0px 0px 4px;&quot;&gt;- table=(Object[][])&lt;/p&gt;" style="verticalAlign=top;align=left;overflow=fill;fontSize=12;fontFamily=Helvetica;html=1;whiteSpace=wrap;spacingLeft=1;spacing=0;spacingTop=0;" parent="1" vertex="1">
          <mxGeometry x="120" y="805" width="275" height="151" as="geometry" />
        </mxCell>
        <mxCell id="Pea8CBOK4NY8jZDrgwvB-14" value="&quot;use&quot;" style="text;html=1;align=center;verticalAlign=middle;resizable=0;points=[];autosize=1;strokeColor=none;fillColor=none;" parent="1" vertex="1">
          <mxGeometry x="510" y="880" width="46" height="26" as="geometry" />
        </mxCell>
        <mxCell id="BpApTvD1QGcqfDAQHZFD-7" style="edgeStyle=orthogonalEdgeStyle;rounded=0;orthogonalLoop=1;jettySize=auto;html=1;exitX=1;exitY=0.5;exitDx=0;exitDy=0;entryX=0;entryY=0.5;entryDx=0;entryDy=0;dashed=1;dashPattern=12 12;endArrow=open;endFill=0;" parent="1" source="BpApTvD1QGcqfDAQHZFD-3" target="PT7E_KIHdmfiMfbQSfNv-4" edge="1">
          <mxGeometry relative="1" as="geometry">
            <Array as="points">
              <mxPoint x="33" y="506" />
              <mxPoint x="33" y="698" />
            </Array>
          </mxGeometry>
        </mxCell>
        <mxCell id="Hxq6mGlaAH_u8vo4JDCb-12" style="edgeStyle=orthogonalEdgeStyle;rounded=0;orthogonalLoop=1;jettySize=auto;html=1;exitX=0;exitY=0.75;exitDx=0;exitDy=0;entryX=0;entryY=0.5;entryDx=0;entryDy=0;endArrow=diamondThin;endFill=1;endSize=15;startSize=15;" edge="1" parent="1" source="BpApTvD1QGcqfDAQHZFD-3" target="Hxq6mGlaAH_u8vo4JDCb-4">
          <mxGeometry relative="1" as="geometry">
            <Array as="points">
              <mxPoint x="-357" y="561" />
              <mxPoint x="-357" y="947" />
            </Array>
          </mxGeometry>
        </mxCell>
        <mxCell id="BpApTvD1QGcqfDAQHZFD-3" value="&lt;p style=&quot;margin: 4px 0px 0px; text-align: center;&quot;&gt;&lt;b&gt;Student_list&lt;/b&gt;&lt;/p&gt;&lt;hr style=&quot;&quot;&gt;&lt;div style=&quot;border-color: var(--border-color);&quot;&gt;&amp;nbsp;- file_path: String&lt;/div&gt;&lt;div style=&quot;border-color: var(--border-color);&quot;&gt;&amp;nbsp;- student_list: Student[]&lt;/div&gt;&lt;div style=&quot;border-color: var(--border-color);&quot;&gt;&amp;nbsp;- strategy: Student_list_strategy&lt;/div&gt;&lt;hr style=&quot;&quot;&gt;&lt;p style=&quot;margin: 0px 0px 0px 4px;&quot;&gt;+ strategy=(Student_list_strategy&lt;span style=&quot;background-color: initial;&quot;&gt;)&lt;/span&gt;&lt;/p&gt;&lt;p style=&quot;margin: 0px 0px 0px 4px;&quot;&gt;&lt;span style=&quot;background-color: initial;&quot;&gt;+ read&lt;/span&gt;&lt;/p&gt;&lt;p style=&quot;margin: 0px 0px 0px 4px;&quot;&gt;+ write&lt;/p&gt;&lt;p style=&quot;margin: 0px 0px 0px 4px;&quot;&gt;+ get_student_by_id(Integer)&lt;/p&gt;&lt;p style=&quot;margin: 0px 0px 0px 4px;&quot;&gt;+ get_n_k_student_short_list(Integer,Integer,&amp;nbsp;Student[])&lt;/p&gt;&lt;p style=&quot;margin: 0px 0px 0px 4px;&quot;&gt;+ sort_by_initials&lt;/p&gt;&lt;p style=&quot;margin: 0px 0px 0px 4px;&quot;&gt;+ add_student(Student)&lt;/p&gt;&lt;p style=&quot;margin: 0px 0px 0px 4px;&quot;&gt;+ replace_student_by_id(Integer, Student)&lt;/p&gt;&lt;p style=&quot;margin: 0px 0px 0px 4px;&quot;&gt;+ delete_student_by_id(Integer)&lt;/p&gt;&lt;p style=&quot;margin: 0px 0px 0px 4px;&quot;&gt;+ get_student_short_count&lt;/p&gt;&lt;p style=&quot;margin: 0px 0px 0px 4px;&quot;&gt;&lt;b style=&quot;border-color: var(--border-color);&quot;&gt;&amp;nbsp;private:&lt;/b&gt;&lt;br&gt;&lt;/p&gt;&lt;p style=&quot;margin: 0px 0px 0px 4px;&quot;&gt;- unique?(Student)&lt;/p&gt;&lt;p style=&quot;margin: 0px 0px 0px 4px;&quot;&gt;&lt;br&gt;&lt;/p&gt;" style="verticalAlign=top;align=left;overflow=fill;fontSize=12;fontFamily=Helvetica;html=1;whiteSpace=wrap;spacingLeft=1;spacing=0;spacingTop=0;" parent="1" vertex="1">
          <mxGeometry x="-309" y="367" width="301" height="264" as="geometry" />
        </mxCell>
        <mxCell id="BpApTvD1QGcqfDAQHZFD-6" style="edgeStyle=orthogonalEdgeStyle;rounded=0;orthogonalLoop=1;jettySize=auto;html=1;entryX=0.001;entryY=0.415;entryDx=0;entryDy=0;entryPerimeter=0;endArrow=open;endFill=0;dashed=1;dashPattern=12 12;" parent="1" target="XE95BQeEQHAdmC5Dozax-9" edge="1">
          <mxGeometry relative="1" as="geometry">
            <mxPoint x="-8" y="463" as="sourcePoint" />
          </mxGeometry>
        </mxCell>
        <mxCell id="BpApTvD1QGcqfDAQHZFD-8" value="&quot;use&quot;" style="text;html=1;align=center;verticalAlign=middle;resizable=0;points=[];autosize=1;strokeColor=none;fillColor=none;" parent="1" vertex="1">
          <mxGeometry x="36" y="439" width="46" height="26" as="geometry" />
        </mxCell>
        <mxCell id="BpApTvD1QGcqfDAQHZFD-9" value="&quot;use&quot;" style="text;html=1;align=center;verticalAlign=middle;resizable=0;points=[];autosize=1;strokeColor=none;fillColor=none;" parent="1" vertex="1">
          <mxGeometry x="50" y="675" width="46" height="26" as="geometry" />
        </mxCell>
        <mxCell id="RZ3JEqOYBqGu6zBNdv0o-5" style="edgeStyle=orthogonalEdgeStyle;rounded=0;orthogonalLoop=1;jettySize=auto;html=1;entryX=0.5;entryY=0;entryDx=0;entryDy=0;endArrow=block;endFill=0;dashed=1;dashPattern=12 12;" parent="1" source="BpApTvD1QGcqfDAQHZFD-10" target="RZ3JEqOYBqGu6zBNdv0o-4" edge="1">
          <mxGeometry relative="1" as="geometry" />
        </mxCell>
        <mxCell id="BpApTvD1QGcqfDAQHZFD-10" value="&lt;p style=&quot;margin: 4px 0px 0px; text-align: center;&quot;&gt;&lt;b&gt;Student_list_JSON&lt;/b&gt;&lt;/p&gt;&lt;hr style=&quot;&quot;&gt;&lt;div style=&quot;border-color: var(--border-color);&quot;&gt;&lt;br&gt;&lt;/div&gt;&lt;hr style=&quot;&quot;&gt;&lt;p style=&quot;border-color: var(--border-color); margin: 0px 0px 0px 4px;&quot;&gt;+ write(String, Student_List)&amp;nbsp;&lt;br style=&quot;border-color: var(--border-color);&quot;&gt;&lt;/p&gt;&lt;p style=&quot;border-color: var(--border-color); margin: 0px 0px 0px 4px;&quot;&gt;+ read(String)&amp;nbsp;&lt;/p&gt;" style="verticalAlign=top;align=left;overflow=fill;fontSize=12;fontFamily=Helvetica;html=1;whiteSpace=wrap;spacingLeft=1;spacing=0;spacingTop=0;" parent="1" vertex="1">
          <mxGeometry x="-670" y="284" width="275" height="101" as="geometry" />
        </mxCell>
        <mxCell id="RZ3JEqOYBqGu6zBNdv0o-6" style="edgeStyle=orthogonalEdgeStyle;rounded=0;orthogonalLoop=1;jettySize=auto;html=1;entryX=0.5;entryY=1;entryDx=0;entryDy=0;endArrow=block;endFill=0;dashed=1;dashPattern=12 12;" parent="1" source="RZ3JEqOYBqGu6zBNdv0o-3" target="RZ3JEqOYBqGu6zBNdv0o-4" edge="1">
          <mxGeometry relative="1" as="geometry" />
        </mxCell>
        <mxCell id="RZ3JEqOYBqGu6zBNdv0o-3" value="&lt;p style=&quot;margin: 4px 0px 0px; text-align: center;&quot;&gt;&lt;b&gt;Student_list_YAML_strategy&lt;/b&gt;&lt;/p&gt;&lt;hr style=&quot;&quot;&gt;&lt;div style=&quot;border-color: var(--border-color);&quot;&gt;&lt;br&gt;&lt;/div&gt;&lt;hr style=&quot;&quot;&gt;&lt;p style=&quot;margin: 0px 0px 0px 4px;&quot;&gt;+ write(String, Student_List)&lt;/p&gt;&lt;p style=&quot;border-color: var(--border-color); margin: 0px 0px 0px 4px;&quot;&gt;+ read(String)&amp;nbsp;&lt;/p&gt;" style="verticalAlign=top;align=left;overflow=fill;fontSize=12;fontFamily=Helvetica;html=1;whiteSpace=wrap;spacingLeft=1;spacing=0;spacingTop=0;" parent="1" vertex="1">
          <mxGeometry x="-670" y="620" width="275" height="97" as="geometry" />
        </mxCell>
        <mxCell id="RZ3JEqOYBqGu6zBNdv0o-4" value="&lt;p style=&quot;margin: 4px 0px 0px; text-align: center;&quot;&gt;&lt;b&gt;Student_list_strategy&lt;/b&gt;&lt;/p&gt;&lt;hr style=&quot;&quot;&gt;&lt;div style=&quot;border-color: var(--border-color);&quot;&gt;&lt;br&gt;&lt;/div&gt;&lt;hr style=&quot;&quot;&gt;&lt;p style=&quot;margin: 0px 0px 0px 4px;&quot;&gt;&lt;span style=&quot;background-color: initial;&quot;&gt;+ write(String, Student_List) (abstract)&lt;/span&gt;&lt;br&gt;&lt;/p&gt;&lt;p style=&quot;border-color: var(--border-color); margin: 0px 0px 0px 4px;&quot;&gt;+ read(String) (abstract)&lt;/p&gt;" style="verticalAlign=top;align=left;overflow=fill;fontSize=12;fontFamily=Helvetica;html=1;whiteSpace=wrap;spacingLeft=1;spacing=0;spacingTop=0;" parent="1" vertex="1">
          <mxGeometry x="-670" y="457" width="275" height="97.87" as="geometry" />
        </mxCell>
        <mxCell id="RZ3JEqOYBqGu6zBNdv0o-8" style="edgeStyle=orthogonalEdgeStyle;rounded=0;orthogonalLoop=1;jettySize=auto;html=1;entryX=0;entryY=0.5;entryDx=0;entryDy=0;endArrow=diamondThin;endFill=0;startArrow=none;startFill=0;endSize=15;startSize=15;exitX=1.005;exitY=0.438;exitDx=0;exitDy=0;exitPerimeter=0;" parent="1" source="RZ3JEqOYBqGu6zBNdv0o-4" target="BpApTvD1QGcqfDAQHZFD-3" edge="1">
          <mxGeometry relative="1" as="geometry">
            <mxPoint x="-350" y="685.5" as="sourcePoint" />
            <mxPoint x="-292" y="723.5" as="targetPoint" />
          </mxGeometry>
        </mxCell>
        <mxCell id="RZ3JEqOYBqGu6zBNdv0o-9" style="edgeStyle=orthogonalEdgeStyle;rounded=0;orthogonalLoop=1;jettySize=auto;html=1;entryX=0;entryY=0.25;entryDx=0;entryDy=0;endArrow=none;endFill=0;startArrow=diamondThin;startFill=0;endSize=19;startSize=15;exitX=1.005;exitY=0.438;exitDx=0;exitDy=0;exitPerimeter=0;" parent="1" target="XE95BQeEQHAdmC5Dozax-8" edge="1">
          <mxGeometry relative="1" as="geometry">
            <mxPoint x="-8" y="410" as="sourcePoint" />
            <mxPoint x="77" y="410" as="targetPoint" />
          </mxGeometry>
        </mxCell>
        <mxCell id="r5wtg_AWXMAh0Cm2pznO-1" value="" style="triangle;whiteSpace=wrap;html=1;" parent="1" vertex="1">
          <mxGeometry x="549" y="328" width="15" height="18" as="geometry" />
        </mxCell>
        <mxCell id="r5wtg_AWXMAh0Cm2pznO-4" value="Student_list_DB" style="swimlane;fontStyle=1;align=center;verticalAlign=top;childLayout=stackLayout;horizontal=1;startSize=26;horizontalStack=0;resizeParent=1;resizeParentMax=0;resizeLast=0;collapsible=1;marginBottom=0;whiteSpace=wrap;html=1;" parent="1" vertex="1">
          <mxGeometry x="-386" y="10" width="378" height="179" as="geometry" />
        </mxCell>
        <mxCell id="r5wtg_AWXMAh0Cm2pznO-5" value="- connection" style="text;strokeColor=none;fillColor=none;align=left;verticalAlign=top;spacingLeft=4;spacingRight=4;overflow=hidden;rotatable=0;points=[[0,0.5],[1,0.5]];portConstraint=eastwest;whiteSpace=wrap;html=1;" parent="r5wtg_AWXMAh0Cm2pznO-4" vertex="1">
          <mxGeometry y="26" width="378" height="27" as="geometry" />
        </mxCell>
        <mxCell id="r5wtg_AWXMAh0Cm2pznO-6" value="" style="line;strokeWidth=1;fillColor=none;align=left;verticalAlign=middle;spacingTop=-1;spacingLeft=3;spacingRight=3;rotatable=0;labelPosition=right;points=[];portConstraint=eastwest;strokeColor=inherit;" parent="r5wtg_AWXMAh0Cm2pznO-4" vertex="1">
          <mxGeometry y="53" width="378" height="8" as="geometry" />
        </mxCell>
        <mxCell id="r5wtg_AWXMAh0Cm2pznO-7" value="&lt;div&gt;+ get_student_by_id(Integer): Student&lt;/div&gt;&lt;div&gt;+ get_k_n_student_short_list(Integer, Integer, Data_list = nil): Data_list_student_short&lt;/div&gt;&lt;div&gt;&lt;span style=&quot;background-color: initial;&quot;&gt;+ append_student(Student)&lt;/span&gt;&lt;br&gt;&lt;/div&gt;&lt;div&gt;+ replace_by_id(Integer, Student)&lt;/div&gt;&lt;div&gt;+ delete_by_id(Integer)&lt;/div&gt;&lt;div&gt;+ get_student_count: Integer&lt;/div&gt;" style="text;strokeColor=none;fillColor=none;align=left;verticalAlign=top;spacingLeft=4;spacingRight=4;overflow=hidden;rotatable=0;points=[[0,0.5],[1,0.5]];portConstraint=eastwest;whiteSpace=wrap;html=1;" parent="r5wtg_AWXMAh0Cm2pznO-4" vertex="1">
          <mxGeometry y="61" width="378" height="118" as="geometry" />
        </mxCell>
        <mxCell id="r5wtg_AWXMAh0Cm2pznO-8" value="DB_connection" style="swimlane;fontStyle=1;align=center;verticalAlign=top;childLayout=stackLayout;horizontal=1;startSize=26;horizontalStack=0;resizeParent=1;resizeParentMax=0;resizeLast=0;collapsible=1;marginBottom=0;whiteSpace=wrap;html=1;" parent="1" vertex="1">
          <mxGeometry x="-383" y="-271" width="377" height="160" as="geometry" />
        </mxCell>
        <mxCell id="r5wtg_AWXMAh0Cm2pznO-9" value="- &lt;u&gt;instance&lt;/u&gt;&lt;div&gt;- connection&lt;/div&gt;" style="text;strokeColor=none;fillColor=none;align=left;verticalAlign=top;spacingLeft=4;spacingRight=4;overflow=hidden;rotatable=0;points=[[0,0.5],[1,0.5]];portConstraint=eastwest;whiteSpace=wrap;html=1;" parent="r5wtg_AWXMAh0Cm2pznO-8" vertex="1">
          <mxGeometry y="26" width="377" height="44" as="geometry" />
        </mxCell>
        <mxCell id="r5wtg_AWXMAh0Cm2pznO-10" value="" style="line;strokeWidth=1;fillColor=none;align=left;verticalAlign=middle;spacingTop=-1;spacingLeft=3;spacingRight=3;rotatable=0;labelPosition=right;points=[];portConstraint=eastwest;strokeColor=inherit;" parent="r5wtg_AWXMAh0Cm2pznO-8" vertex="1">
          <mxGeometry y="70" width="377" height="8" as="geometry" />
        </mxCell>
        <mxCell id="r5wtg_AWXMAh0Cm2pznO-11" value="- &lt;u&gt;new&lt;/u&gt;&lt;div&gt;+ connect(String, String, String, String, String): PG::connection&lt;/div&gt;&lt;div&gt;+ connected?: Boolean&lt;/div&gt;&lt;div&gt;+ execute_query(String): PG::Result&lt;/div&gt;&lt;div&gt;+ close_connection&lt;/div&gt;" style="text;strokeColor=none;fillColor=none;align=left;verticalAlign=top;spacingLeft=4;spacingRight=4;overflow=hidden;rotatable=0;points=[[0,0.5],[1,0.5]];portConstraint=eastwest;whiteSpace=wrap;html=1;" parent="r5wtg_AWXMAh0Cm2pznO-8" vertex="1">
          <mxGeometry y="78" width="377" height="82" as="geometry" />
        </mxCell>
        <mxCell id="r5wtg_AWXMAh0Cm2pznO-13" style="edgeStyle=orthogonalEdgeStyle;rounded=0;orthogonalLoop=1;jettySize=auto;html=1;dashed=1;dashPattern=12 12;" parent="1" source="r5wtg_AWXMAh0Cm2pznO-7" edge="1">
          <mxGeometry relative="1" as="geometry">
            <mxPoint x="120" y="740" as="targetPoint" />
            <Array as="points">
              <mxPoint x="-736" y="130" />
              <mxPoint x="-736" y="740" />
              <mxPoint x="55" y="740" />
              <mxPoint x="120" y="739" />
            </Array>
          </mxGeometry>
        </mxCell>
        <mxCell id="r5wtg_AWXMAh0Cm2pznO-14" value="&quot;use&quot;" style="text;html=1;align=center;verticalAlign=middle;resizable=0;points=[];autosize=1;strokeColor=none;fillColor=none;" parent="1" vertex="1">
          <mxGeometry x="-563" y="102" width="46" height="26" as="geometry" />
        </mxCell>
        <mxCell id="r5wtg_AWXMAh0Cm2pznO-15" style="edgeStyle=orthogonalEdgeStyle;rounded=0;orthogonalLoop=1;jettySize=auto;html=1;entryX=0.5;entryY=0;entryDx=0;entryDy=0;exitX=0.999;exitY=0.051;exitDx=0;exitDy=0;exitPerimeter=0;dashed=1;dashPattern=12 12;" parent="1" source="r5wtg_AWXMAh0Cm2pznO-7" target="XE95BQeEQHAdmC5Dozax-8" edge="1">
          <mxGeometry relative="1" as="geometry">
            <mxPoint x="30" y="112" as="sourcePoint" />
            <Array as="points">
              <mxPoint x="257" y="77" />
            </Array>
          </mxGeometry>
        </mxCell>
        <mxCell id="r5wtg_AWXMAh0Cm2pznO-16" value="&quot;use&quot;" style="text;html=1;align=center;verticalAlign=middle;resizable=0;points=[];autosize=1;strokeColor=none;fillColor=none;" parent="1" vertex="1">
          <mxGeometry x="-4" y="48" width="46" height="26" as="geometry" />
        </mxCell>
        <mxCell id="mITI82Wi4LYZrnPkFfU6-2" style="edgeStyle=orthogonalEdgeStyle;rounded=0;orthogonalLoop=1;jettySize=auto;html=1;entryX=0.5;entryY=0;entryDx=0;entryDy=0;exitX=0.493;exitY=1.012;exitDx=0;exitDy=0;exitPerimeter=0;dashed=1;dashPattern=12 12;" parent="1" source="r5wtg_AWXMAh0Cm2pznO-11" target="r5wtg_AWXMAh0Cm2pznO-4" edge="1">
          <mxGeometry relative="1" as="geometry" />
        </mxCell>
        <mxCell id="Hxq6mGlaAH_u8vo4JDCb-9" style="edgeStyle=orthogonalEdgeStyle;rounded=0;orthogonalLoop=1;jettySize=auto;html=1;exitX=0.5;exitY=1;exitDx=0;exitDy=0;entryX=0.5;entryY=0;entryDx=0;entryDy=0;startArrow=diamondThin;startFill=1;endArrow=diamondThin;endFill=1;endSize=15;startSize=15;" edge="1" parent="1" source="Hxq6mGlaAH_u8vo4JDCb-1" target="Hxq6mGlaAH_u8vo4JDCb-5">
          <mxGeometry relative="1" as="geometry" />
        </mxCell>
        <mxCell id="Hxq6mGlaAH_u8vo4JDCb-1" value="Student_list_controller" style="swimlane;fontStyle=1;align=center;verticalAlign=top;childLayout=stackLayout;horizontal=1;startSize=26;horizontalStack=0;resizeParent=1;resizeParentMax=0;resizeLast=0;collapsible=1;marginBottom=0;whiteSpace=wrap;html=1;" vertex="1" parent="1">
          <mxGeometry x="-309" y="809" width="302" height="188" as="geometry" />
        </mxCell>
        <mxCell id="Hxq6mGlaAH_u8vo4JDCb-2" value="- view: Student_list_view&lt;div&gt;- student_list: Student_list&lt;/div&gt;&lt;div&gt;- data_list: Data_list_student_short&lt;/div&gt;" style="text;strokeColor=none;fillColor=none;align=left;verticalAlign=top;spacingLeft=4;spacingRight=4;overflow=hidden;rotatable=0;points=[[0,0.5],[1,0.5]];portConstraint=eastwest;whiteSpace=wrap;html=1;" vertex="1" parent="Hxq6mGlaAH_u8vo4JDCb-1">
          <mxGeometry y="26" width="302" height="54" as="geometry" />
        </mxCell>
        <mxCell id="Hxq6mGlaAH_u8vo4JDCb-3" value="" style="line;strokeWidth=1;fillColor=none;align=left;verticalAlign=middle;spacingTop=-1;spacingLeft=3;spacingRight=3;rotatable=0;labelPosition=right;points=[];portConstraint=eastwest;strokeColor=inherit;" vertex="1" parent="Hxq6mGlaAH_u8vo4JDCb-1">
          <mxGeometry y="80" width="302" height="8" as="geometry" />
        </mxCell>
        <mxCell id="Hxq6mGlaAH_u8vo4JDCb-4" value="&lt;div&gt;+ refresh_data&lt;/div&gt;&lt;div&gt;+ sort_table_by_column&lt;/div&gt;&lt;div&gt;+ create&lt;/div&gt;&lt;div&gt;+&amp;nbsp;change&lt;span style=&quot;background-color: initial;&quot;&gt;(Integer)&lt;/span&gt;&lt;br&gt;&lt;/div&gt;&lt;div&gt;+ delete(Integer[])&lt;/div&gt;&lt;div&gt;+ renew&lt;/div&gt;" style="text;strokeColor=none;fillColor=none;align=left;verticalAlign=top;spacingLeft=4;spacingRight=4;overflow=hidden;rotatable=0;points=[[0,0.5],[1,0.5]];portConstraint=eastwest;whiteSpace=wrap;html=1;" vertex="1" parent="Hxq6mGlaAH_u8vo4JDCb-1">
          <mxGeometry y="88" width="302" height="100" as="geometry" />
        </mxCell>
        <mxCell id="Hxq6mGlaAH_u8vo4JDCb-5" value="Student_list_view" style="swimlane;fontStyle=1;align=center;verticalAlign=top;childLayout=stackLayout;horizontal=1;startSize=26;horizontalStack=0;resizeParent=1;resizeParentMax=0;resizeLast=0;collapsible=1;marginBottom=0;whiteSpace=wrap;html=1;" vertex="1" parent="1">
          <mxGeometry x="-309" y="1091" width="302" height="411" as="geometry" />
        </mxCell>
        <mxCell id="Hxq6mGlaAH_u8vo4JDCb-6" value="&lt;div&gt;- controller: Student_list_controller&lt;/div&gt;- filters: Hash&lt;div&gt;- table: FXTable&lt;/div&gt;&lt;div&gt;- current_page: Integer&lt;/div&gt;&lt;div&gt;- items_per_page: Integer&lt;/div&gt;&lt;div&gt;- total_pages: Integer&lt;/div&gt;&lt;div&gt;- delete_button: FXButton&lt;/div&gt;&lt;div&gt;- edit_button: FXButton&lt;/div&gt;&lt;div&gt;- prev_button: FXButton&lt;/div&gt;&lt;div&gt;- next_button: FXButton&lt;/div&gt;&lt;div&gt;- page_index: FXLabel&lt;/div&gt;&lt;div&gt;- selected_rows: Integer[]&lt;/div&gt;" style="text;strokeColor=none;fillColor=none;align=left;verticalAlign=top;spacingLeft=4;spacingRight=4;overflow=hidden;rotatable=0;points=[[0,0.5],[1,0.5]];portConstraint=eastwest;whiteSpace=wrap;html=1;" vertex="1" parent="Hxq6mGlaAH_u8vo4JDCb-5">
          <mxGeometry y="26" width="302" height="181" as="geometry" />
        </mxCell>
        <mxCell id="Hxq6mGlaAH_u8vo4JDCb-7" value="" style="line;strokeWidth=1;fillColor=none;align=left;verticalAlign=middle;spacingTop=-1;spacingLeft=3;spacingRight=3;rotatable=0;labelPosition=right;points=[];portConstraint=eastwest;strokeColor=inherit;" vertex="1" parent="Hxq6mGlaAH_u8vo4JDCb-5">
          <mxGeometry y="207" width="302" height="8" as="geometry" />
        </mxCell>
        <mxCell id="Hxq6mGlaAH_u8vo4JDCb-8" value="&lt;div&gt;+ create&lt;/div&gt;&lt;div&gt;+ set_table_params(String[], Integer)&lt;/div&gt;&lt;div&gt;+ set_table_data(Data_table)&lt;/div&gt;&lt;div&gt;+ update_buttons_state&lt;/div&gt;&lt;div&gt;&lt;b style=&quot;border-color: var(--border-color);&quot;&gt;&amp;nbsp;private:&lt;/b&gt;&lt;br&gt;&lt;/div&gt;&lt;div&gt;- setup_filter_segment(FXHorizontalFrame)&lt;/div&gt;&lt;div&gt;- add_filter_row(FXHorizontalFrame)&lt;/div&gt;&lt;div&gt;- setup_table_segment(FXHorizontalFrame)&lt;/div&gt;&lt;div&gt;- setup_crud_segment(FXHorizontalFrame)&lt;/div&gt;&lt;div&gt;- change_page(Integer)&lt;/div&gt;&lt;div&gt;- clear_table&lt;/div&gt;&lt;div&gt;-&amp;nbsp;change&lt;span style=&quot;background-color: initial;&quot;&gt;_log&lt;/span&gt;&lt;br&gt;&lt;/div&gt;&lt;div&gt;- delete_logs&lt;/div&gt;&lt;div&gt;&lt;br&gt;&lt;/div&gt;" style="text;strokeColor=none;fillColor=none;align=left;verticalAlign=top;spacingLeft=4;spacingRight=4;overflow=hidden;rotatable=0;points=[[0,0.5],[1,0.5]];portConstraint=eastwest;whiteSpace=wrap;html=1;" vertex="1" parent="Hxq6mGlaAH_u8vo4JDCb-5">
          <mxGeometry y="215" width="302" height="196" as="geometry" />
        </mxCell>
        <mxCell id="Hxq6mGlaAH_u8vo4JDCb-11" style="edgeStyle=orthogonalEdgeStyle;rounded=0;orthogonalLoop=1;jettySize=auto;html=1;exitX=0;exitY=0.5;exitDx=0;exitDy=0;entryX=1.001;entryY=0.835;entryDx=0;entryDy=0;entryPerimeter=0;endArrow=diamondThin;endFill=1;endSize=15;startSize=15;" edge="1" parent="1" source="Pea8CBOK4NY8jZDrgwvB-12" target="Hxq6mGlaAH_u8vo4JDCb-2">
          <mxGeometry relative="1" as="geometry" />
        </mxCell>
        <mxCell id="Hxq6mGlaAH_u8vo4JDCb-13" style="edgeStyle=orthogonalEdgeStyle;rounded=0;orthogonalLoop=1;jettySize=auto;html=1;exitX=1;exitY=0.5;exitDx=0;exitDy=0;entryX=0.5;entryY=1;entryDx=0;entryDy=0;dashed=1;dashPattern=12 12;endArrow=open;endFill=0;endSize=8;" edge="1" parent="1" source="Hxq6mGlaAH_u8vo4JDCb-6" target="Pea8CBOK4NY8jZDrgwvB-12">
          <mxGeometry relative="1" as="geometry" />
        </mxCell>
        <mxCell id="Hxq6mGlaAH_u8vo4JDCb-14" value="&quot;use&quot;" style="text;html=1;align=center;verticalAlign=middle;resizable=0;points=[];autosize=1;strokeColor=none;fillColor=none;" vertex="1" parent="1">
          <mxGeometry x="120" y="1180" width="46" height="26" as="geometry" />
        </mxCell>
      </root>
    </mxGraphModel>
  </diagram>
</mxfile>
